<?xml version="1.0" encoding="UTF-8"?>
<svg id="Layer_1" xmlns="http://www.w3.org/2000/svg" version="1.1" viewBox="0 0 485.2 80.9">
  <!-- Generator: Adobe Illustrator 29.0.1, SVG Export Plug-In . SVG Version: 2.1.0 Build 192)  -->
  <defs>
    <style>
      .st0 {
        fill: #254892;
      }
    </style>
  </defs>
  <path class="st0" d="M61.4,50.1c-.9-2.6-10.4-13.1-12.8-14.8-8.1-5.9-21-7.2-30.3-3.9-3.6,1.3-6.1,4.1-10.1,4.4-.1-1.4-1-2.7-.9-4.2.1-9.4,2.2-19.7,2.2-28.9,0-.9-.4-1.8-.7-2.6C4,0,3,4.1,2.1,8-.9,20.9,1,36.1.8,49.5c0,5.5-1.1,12.3-.7,17.7.5,7.1,9,9,14.9,10,15.2,2.5,28.3,1.1,40.2-9.4,4.4-3.9,8.3-12,6.3-17.8ZM49.5,62.6c-5.3,4.5-12.4,6.6-19.2,7.8-4.2.8-12.4,2.3-16.1.4-3-1.5-.2-2.9.1-4.3,1.5-6.5-4.8-15.8.2-21.8,1.6-2,6.2-4.4,8.8-4.8,11-1.5,24.1,2.5,28.5,13.5,1.9,4.7,1.6,5.8-2.2,9.1Z"/>
  <path class="st0" d="M479.1,69.3c-5.8-1-10.6.4-15.8-2.9-7.6-4.8-14.7-13-17.6-21.5-.6-1.7-1.4-6.5-2.3-7.5-.5-.5-2.2-1.2-2.9-1.3-2.9-.4-6.8,0-9.9-.3-2.8-.3-5.7-1.3-8.4-1.5-5.9-.5-19.4-.2-23,5.3-1.5,2.3-1.3,5.7,1.9,6.1,1.1.1,5.8-1.9,7.5-2.3,2-.4,4.3-.6,6.4-.4,1.3.1,3.2,1.1,4.1,1.2.9,0,1.7-.7,2.6-.6-3.3,3.5-8,5.1-11.6,8.4-4,3.6-9.1,11.7-7.3,17.3.7,2.2,6.5,5.2,8.7,5.6,4.1.8,11-2.3,14.8-4.2,3.3-1.6,6.4-3.6,8.8-6.4,1.1-1.2,2.5-4.1,4-4.5,3.7-1,7.6,6.3,9.8,8.5,2.6,2.5,8.6,6.3,12.1,7.3,4.2,1.2,14.5,1.8,18.6.7,1.2-.3,5.4-2,5.6-3.1,0-2.4-4.1-3.5-6.1-3.8ZM433,54.5c-.8,1.4-4.8,5.2-6.2,6.2-3.1,2.4-6.6,3.4-10,5.2-1.2.2-1.8-1-2.1-2-2-6.2,3.3-8.5,7.8-11,2.2-1.2,5.1-2.8,7.5-3.7,1.7-.7,2.9-1.2,4.9-.9.3.2-1.4,5.4-1.8,6.1Z"/>
  <path class="st0" d="M112.1,56c-3.6,3.5,1.1,11.1,4.8,12.6,5.8,2.3,15.2,2.9,21.3,1.5s24.3-8.7,30.2-8,1.6,3.8-.8,5.1c-4.1,2.3-11.6,5.1-16.2,6.8-14.3,5.4-32.8,10.4-44.9-2.1s-.8-25.6,10.8-32.1,14.5-6.8,18.6-7.8c8.2-1.8,12.3,9.4,7.7,15.5s-5.6,2.5-8.9,3.5-6.7,3.1-10.8,3.5-9.4-1-11.9,1.4Z"/>
  <path class="st0" d="M336.2,19.9c1,1,.9,2.7.7,4-.7,4-4.7,9.6-5.9,14s-1,5.9,3.1,6.4c6.9.9,13.3-2.5,19.8-1.8s5.2,3.3,1.5,4.6c-6.5,2.3-14.7,1.9-21.3,3.6s-4.6,1.6-4.2,5.3,2.7,10.5,4.3,12.8,5.3,4,5.6,6.2-4.3,7-7.2,5.6c-5.8-2.6-8.9-12.6-10.3-18.2-1.6-6.4-.9-10.8-9.7-7.2-1.9.8-3.4,2.9-5.6,1.5-3.5-2.2-3.2-6.6.3-8.7s6.5-2.8,8.6-2.9,4.1.7,5.7-1,2.5-6.2,3-7.7c1.1-3.4,3-13.5,5.3-15.5s5-2.4,6.6-.8Z"/>
  <path class="st0" d="M269.7,41.5c-.6.6-2.3,1.8-3.2,2-1.7.2-2.4-.7-3.7-.9-3.1-.5-13,2.8-16.7,3.8-7.4,1.9-14.2,2.9-18.7,10.2s.3,11,.4,17.3-7.7,10.2-10.3,3.4,0-8.4-.2-11.6c-.5-8.3-2.9-9.1-5.8-15.6s-2.8-8.6,1.2-11.4,4.9.6,6.2,3,2,5.6,2.7,6c1.5.7,2-.7,3-1.3,6.3-4.1,16.8-8.7,24.2-9.6s16.5-1.2,20.4,0,2.1,3,.4,4.8Z"/>
</svg>