<?xml version="1.0" encoding="UTF-8"?>
<svg id="Layer_1" xmlns="http://www.w3.org/2000/svg" version="1.1" viewBox="0 0 170.1 170.1">
  <!-- Generator: Adobe Illustrator 29.0.1, SVG Export Plug-In . SVG Version: 2.1.0 Build 192)  -->
  <defs>
    <style>
      .st0 {
        fill: #254892;
      }
    </style>
  </defs>
  <path class="st0" d="M39.4,300.1s0,0,0,0h0s0,0,0,0Z"/>
  <g>
    <path class="st0" d="M155.5,81.7c-1.3-2.8-2.1-5.7-1.8-8.9.2-2,.3,5.8,1.5-6.5,1.3-12.3-5.9-21.9-14.4-29.8-2.5-1.8-4.6-4.4-7.3-5.8-1.8,0-2.5,0-.2,3.6,2.4,3.6,6,5.8,10.2,10.6,4.2,4.8,8.1,11.8,7.4,18.3,0,.9.3-4.8-.7,3.1-1,7.9-.2,14.6.7,22.3.5,4.6,1.4,1.7-1.6,13.4-3,11.7-7.6,24.9-12.4,36.1-.4.7-.6,1.6-1.2,2.3l-1.7-7.5c-2-15.3,1.8-31.3.7-46.5,0-1.3-.5-3.7-.8-4.9-.3-.6-1.1-2.4-1.5-3.1-.2-.4-.4,0-.6-.4-.3-.3,0-.5-.7-1-.4-.3-1.6-.8-2.3-.7.3.9.7,2.4,1.3,4.8,2.9,11.1-4.9,15.7-14.5,26.5-9.6,10.8-20.3,26-29.9,31.7-9.6,5.7-23.3,8.3-32.8,1-5.2-4-4.7-9.4-3.4-14.9s3.2-11.1,4.7-16.5c4.4-15.5,9.1-30.9,13.6-46.4.3-2.7-2.2-5.3-4.1-2.5-1.9,2.7-3.4,7.9-5,11.1-8.3,17.4-22.7,35.3-38.5,46.4-.4.3-1.6,1.3-1.9,1,0-12.2,3.4-24.4,7.4-35.9,2.5-7.2,4.8-14.1,8.7-22.5,3.9-8.3,8.6-13.7,16.5-18.5,19.7-12.1,43.5-17.2,66.4-15.9,1.6,0,4.3.6,5.4.7,1.2,0,2.4.2,3.6.4h0c0-.5,2.1,1.9-.4-1.3s-1-3.2-12.1-4.4c-11.1-1.3-24.7.2-35.2,4-.4,0-.7.3-1,.5-.5-.5.3-1.4.2-2.1,0-.7-.8-1.3-.8-2.1-1.1-.3-1.9.4-2.8.8-9.3,6-18,10.1-28.5,16.7-10.4,6.6-12.9,11.6-17.8,22.7-5.5,12.4-10.2,26.6-13.1,39.9-1.1,4.9-2.9,11.7-1.5,16.7,1.5,5,7,7,11.1,3.8,2.4-1.7-.3,0,7.5-8.2,7.8-8.2,15.7-16.1,23.1-24.7.4-.5.8-1.1,1.5-1-6,11.9-10.4,25.2-12.7,38.3-1,10.3.6,11.6,1.8,13.3.2.2.3.4.4.6h0c1.7,2,6.3,5.8,10.7,7.1,0,0,.1,0,.2,0,.8.2,1.6.4,2.4.6,29.8,7.9,48.6-24.8,65-43.1,1.5-1.6,2.9-3.6,4.7-5.1.4-.2.5-.6.9-.6,0,.7-.2,2.2-.5,5.6-1.1,10.3-1.1,20.6.4,30.8.5,2.9.5,6.9,2.9,10.2,2.4,3.3,6.9,2,7.7-1.9,5-16,10.7-31.7,15.8-47.7.2-.5.2-1,.2-1.5.5-5.6,0-9.4-1.3-13.2ZM130.5,99.4c0,0,.2,0,.3,0-.2.5-.2.3-.3,0Z"/>
    <path class="st0" d="M85,121.6c-.2.2-.3.7-.6,1.1-3,3.3-5.8,5.3-8.5,8.8s-2.7,2.2-4.6.8-5.7-8.8-6-11,0-2.7.5-3.2,2.1-1.1,2.6-1.5c.7-.5,1.2-1.3,2.1-1.8,4.5-2.8,12.1-1.3,16.4,1.5s1,1.7.7,2.6-1.3,1.8-1.5,2c-.4.4-.9.5-1.1.6h0Z"/>
    <path class="st0" d="M71.7,78.5c.6,0,1.1-.2,1.7,0,.8.5,3.2,3.2,3.1,4.3-.2,2.2-2.9,2.9-4.4,3.7s-.7.8-1,.9c-1.5.7-3.7-1.5-3.9-3.1,1.2-1.5,2.7-5.5,4.5-5.9h0Z"/>
    <path class="st0" d="M114.5,91.9c-.2.2-2.1,1.2-2.4,1.2-5.4.8-5-7.3-.4-7.7s3.4,1.6,3.3,2.9-.4.8-.4,1.2,0,2.3,0,2.4h0Z"/>
  </g>
</svg>