<?xml version="1.0" encoding="UTF-8"?>
<svg id="Layer_1" xmlns="http://www.w3.org/2000/svg" version="1.1" viewBox="0 0 23.6 45.6">
  <!-- Generator: Adobe Illustrator 29.0.1, SVG Export Plug-In . SVG Version: 2.1.0 Build 192)  -->
  <defs>
    <style>
      .st0 {
        fill: #fff8d1;
      }
    </style>
  </defs>
  <path class="st0" d="M21.6,44.6c-.2-.2-.5-.5-.6-.8,0-.1-.3-.2-.3-.3,0-.1,0-.2,0-.3,0-.1-.2-.2-.4-.2-.1,0-.2,0-.3-.1,0-.1-.2-.3-.3-.3-.1,0-.3-.2-.4-.3-.3-.2-.3-.6-.7-.7-.3,0-.4-.4-.7-.6l-.7-.7c0,0,0-.1-.1-.2,0-.2-.2-.3-.3-.3-.3-.2-.6-.3-.8-.5-.1,0-.1-.1,0-.2,0,0,0-.2,0-.3-.2,0-.4-.2-.5-.3-.3-.1-.5-.3-.6-.6,0-.1-.1-.2-.2-.3,0,0-.1,0-.2,0-.2,0-.2,0-.2-.2,0-.3-.2-.5-.4-.7-.2-.2-.4-.4-.7-.5-.1,0-.2-.1-.2-.3v-.6c-.2,0-.2-.1-.3-.2-.1,0-.3-.1-.4-.2-.2,0-.2-.2-.2-.4,0,0,0-.1-.2,0,0,0-.2,0-.3,0-.2,0-.5-.2-.6-.4,0-.1-.1-.2-.1-.3,0-.2-.2-.4-.3-.5l-1-1c-.2-.2-.4-.4-.6-.7-.1-.3-.3-.5-.6-.6-.2,0-.4-.2-.7-.3-.3,0-.3,0-.4-.5,0,0,0-.1-.2-.1,0,0-.2,0-.2,0-.1-.3-.5-.6-.5-.9,0-.2-.2-.2-.3-.2,0,0-.1,0-.2-.1,0,0,0-.1-.2-.2-.3-.1-.6-.5-.9-.6-.1-.2-.2-.3-.4-.5-.2-.2-.5-.5-.6-.8,0,0-.2-.2-.3-.2-.2,0-.2-.3-.3-.3-.2,0-.2-.2-.2-.4,0-.1,0-.2-.2-.3-.2,0-.3-.3-.5-.4-.2-.1-.2-.4-.4-.5-.3-.1-.5-.4-.7-.5-.2,0-.2-.2-.2-.4,0-.2,0-.3-.2-.5l-.3-.3.3-.3s0-.1.1-.2c.2-.2.3-.5.6-.6,0,0,.1-.2.2-.3,0-.1.1-.2.2-.3.2-.2.4-.2.6-.4.1-.2.3-.4.4-.6,0-.1.2-.3.3-.4.3-.3.5-.6.9-.7.1-.1.3-.2.3-.4,0-.2.2-.4.4-.4,0,0,0,0,.1,0,.1-.2.3-.4.5-.5.1-.2.3-.3.4-.4.2-.1.2-.4.4-.5.2,0,.2-.2.3-.4,0-.1.2-.3.3-.4.1,0,.2-.1.3-.2.3-.5.8-1,1.3-1.3.2-.1.4-.3.5-.5,0-.2.2-.2.4-.2,0,0,0,0,0-.2,0-.3,0-.3.3-.4.1,0,.2,0,.3-.1.1-.2.3-.4.5-.5,0,0,.2-.1.3-.2,0-.2.2-.3.4-.4.2-.2.5-.4.6-.6,0-.2.3-.4.5-.6.2-.2.6-.4.7-.7,0,0,0,0,0,0,.4-.2.7-.5.9-1,0,0,.2-.2.3-.3.3-.2.6-.4.8-.8,0,0,.1-.1.2-.2.5-.3.9-.8,1.3-1.2.3-.3.6-.7,1-1,0,0,.2-.1.3-.3.2-.3.4-.5.7-.7.2-.1.3-.3.4-.4.2-.3.4-.5.7-.7.1,0,.3-.2.4-.3.3-.3.7-.5.9-.9.3-.3.6-.6.9-.9.2-.2.2-.4.5-.6.2-.1.4-.3.5-.5.1-.2.3-.2.5-.3.2,0,.5.1.5.3,0,0,0,0,0,0,0,0,0,0-.1,0-.1,0-.2,0-.1.1.2.3,0,.5-.2.8-.2.1-.3.3-.5.4-.2,0-.3.2-.3.3,0,.2-.2.4-.4.5-.6.4-1,.9-1.5,1.3l-.5.4c0,0-.2,0-.2.1-.5.7-1.1,1.2-1.7,1.9-.2.2-.3.4-.4.6-.2.4-.5.7-.9.8-.1,0-.3.2-.4.2-.1,0-.2.1-.3.2-.3.5-.8.9-1.1,1.4-.3.4-.6.6-1,.7,0,0-.1,0,0,.2,0,.1,0,.3-.1.4-.2.1-.3.3-.5.4-.1,0-.3.2-.4.3-.2.1-.3.3-.4.5,0,.2-.2.4-.4.5-.3.2-.6.4-.8.8-.2.3-.4.6-.8.8-.3.2-.5.4-.7.7-.1.2-.3.4-.5.5-.1,0-.2.1-.3.2-.1.2-.2.4-.4.2,0,0-.1,0-.2,0,0,0,0,.1,0,.2,0,0,0,.1,0,.2,0,0,0,.2,0,.2-.2.1-.3.2-.5.4-.1.1-.2.3-.4.5-.1.1-.2.3-.4.3-.3.1-.4.4-.6.6-.2.1-.4.3-.6.5-.2.2-.4.4-.5.7,0,.1-.2.3-.3.4-.1.1-.3.2-.4,0h-.2c0-.2,0-.2,0-.2,0,0,0,0,0,.1l.2.3c0,0,0,.3-.1.3-.4.2-.7.5-.9.8-.1.2-.2.3-.4.5-.1.1-.3.2-.4.3,0,0,0,.3-.2.2-.2,0-.3,0-.3.2-.1.2-.2.4-.4.6-.2.1-.2.3-.4.4v-1s0,0,0,0c.1.2.3.4.5.6.2.2.3.5.6.6.2.1.3.4.5.6.3.4.6.7,1,.9.4.2.7.5,1,.9.2.3.4.5.7.8.3.3.7.6.9,1,0,.1.2.2.3.2.5.4,1,.8,1.3,1.4,0,.2.3.3.4.5.2.1.3.2.5.4.2.4.6.7.9,1.1,0,0,0,.1.2.2.1,0,.2.1.3.2.4.4.9.8,1.2,1.3.2.2.4.3.6.5.3.3.6.6.9.8.2.2.4.3.5.5.5.5,1,1,1.4,1.4l1.4,1.4c.1.1.3.3.4.5.1.1.2.3.4.3.3.2.5.4.8.6l2.1,2c.2.2.4.5.7.7.2.2.4.4.6.7l1.7,1.7.5.5c0,0,.1.2.1.3,0,.1,0,.3,0,.4,0,0,0,.1-.1,0-.4,0-.7-.3-1.1-.5-.2-.1-.4-.4-.7-.6Z"/>
</svg>